<svg id="Layer_2" data-name="Layer 2" xmlns="http://www.w3.org/2000/svg" viewBox="0 0 1393.67 577.75"><title>BitwiseIndustries</title><path d="M-277.7,165.37c7.35,3.19,15.49,6.17,23.11,10.15,20.14,10.5,34.06,26.19,37.44,49.31,6.18,42.28-13.25,78.5-51.72,97.21-25,12.14-51.73,16.59-79.09,15.65-27.75-.95-55.44-3.86-83.16-5.93a14.36,14.36,0,0,1-2.56-.71V22.14c7.82-.92,15.67-2.21,23.56-2.71,25.42-1.6,50.84-3.74,76.29-4.08,23.3-.31,46.12,3.91,67.18,14.71s36.16,26.7,40.61,50.68c5.1,27.47-3.38,50.5-25.07,68C-259.28,155.29-269,160-277.7,165.37Zm-93.17,121.7c15.92,0,31.41.78,46.78-.18,23.67-1.48,38.67-15.3,40.56-37.64,2.51-29.6-10.29-48.12-40.08-51.14-15.33-1.55-30.9-.77-46.37-1-.26,0-.52.35-.9.62Zm.05-138.42c2.54,0,4.83.07,7.12,0,13-.46,26.07.09,38.85-1.7,18.73-2.62,29.06-13.6,31.39-32.31,3.09-24.85-6.74-46.31-36.86-48.69-11.85-.94-23.89.65-35.85.9-3.82.08-5,1.44-5,5.36.19,23.82.09,47.65.1,71.47C-371.06,145.14-370.93,146.6-370.82,148.65Z" transform="translate(433.68 42.76)"/><path d="M933.41,196.16H827.23v89.61H953.55v49.9H764.36V17.42h185V66.86H827.3v79.07H933.41Z" transform="translate(433.68 42.76)"/><path d="M746.82,24.54l-6.48,48.79c-6.14-1.7-11.78-3.5-17.52-4.81C700.42,63.45,677.87,60.68,655,65a55.37,55.37,0,0,0-10,3c-12.3,4.85-21,13.12-22.68,26.75-1.74,14.12,2.21,26.42,13.83,35.49,9.64,7.53,21.19,10.86,32.49,14.89,15,5.34,30.42,10.09,44.54,17.28,32.94,16.79,47,44.5,44.07,83.48-3.36,44-29.44,70.14-68.87,85-23.43,8.83-47.95,10.85-72.77,9.92-22-.82-43.83-3.2-65-9.88-2-.65-4.06-1.41-6.48-2.25l6.48-49.93c11.92,2.7,23.29,5.75,34.85,7.77,21.7,3.8,43.6,6.66,65.52,2.38a71.82,71.82,0,0,0,22.73-8.43c23.37-14,25-47.17,3.61-64.08-9.19-7.27-20-11.17-31.08-14.33-16.68-4.76-32.86-10.6-48-19.25-54.35-31-51.56-106.21-16.89-138.49,17.31-16.13,37.95-25.26,60.9-28.85A226.07,226.07,0,0,1,741.08,22c1.43.42,2.84,1,4.23,1.5A9.47,9.47,0,0,1,746.82,24.54Z" transform="translate(433.68 42.76)"/><path d="M4.5,68.06c1.92-.1,3.54-.25,5.16-.25,21.32,0,42.64.08,64-.1,3.82,0,5.43,1.11,6.55,4.86q38.49,129.28,77.24,258.48c.33,1.11.54,2.25,1,4.29h-5c-47.8,0-95.61-.06-143.41.09-4.52,0-5.85-1.15-5.84-5.81q.22-128.17.12-256.35C4.28,71.66,4.42,70,4.5,68.06Z" transform="translate(433.68 42.76)"/><path d="M-59.59,68.17V335h-89.83V68.17Z" transform="translate(433.68 42.76)"/><path d="M130.82,18.11H248.38c-18.74,85.27-47.29,168.05-56.57,253.4-2.9-17.12-5.1-36.07-9.44-54.51-8.23-35-17.57-69.65-26.65-104.41C148,83,140,53.45,132.13,23.89,131.66,22.14,131.33,20.36,130.82,18.11Z" transform="translate(433.68 42.76)"/><path d="M370.44,272.18c-4.92-47.07-15.87-92.85-27.63-138.47C333.3,96.82,324,59.88,314.66,23c-.37-1.44-.64-2.91-1-4.77H431.09C411.36,103,381.15,185.29,370.44,272.18Z" transform="translate(433.68 42.76)"/><path d="M334.68,335h-111c18.21-84.15,47.23-165.68,55.76-251.85,1.3,10.13,2.56,20.26,3.92,30.37,5.22,39,15.28,77,24.83,115q12.69,50.59,25.41,101.17C334,331.29,334.27,332.92,334.68,335Z" transform="translate(433.68 42.76)"/><path d="M475.54,335.07H399.93L475,84.1l.54.14Z" transform="translate(433.68 42.76)"/><path d="M-236.17,362.31h16.77V530.9c-6.62,0-13.38.2-20.11-.17-1.29-.07-2.64-2.23-3.64-3.66q-47.35-67.8-94.62-135.66a11,11,0,0,0-4-3.87v143h-16.91V362.1c6.56,0,13.17-.23,19.74.18,1.45.09,3,2.25,4.1,3.77q47.17,66.71,94.24,133.49a14.41,14.41,0,0,0,4.44,4.46Z" transform="translate(433.68 42.76)"/><path d="M-165.09,531V362.35c1.64-.1,3.09-.26,4.54-.26,17.65,0,35.32-.42,53,.09,26.58.76,49.73,9.81,67.79,30.06C-6,430.08-12.45,509.51-85.35,527.78a113.61,113.61,0,0,1-24.68,3C-128.15,531.26-146.29,531-165.09,531ZM-148,514.47c9,1.55,45.42.48,54.91-1.56,31.86-6.84,53.5-32.57,54.07-64.32.6-33.54-19.13-59.57-51.48-67.78-18.71-4.75-37.78-2.41-56.71-2.68-.25,0-.51.38-.8.61Z" transform="translate(433.68 42.76)"/><path d="M551.49,450.14l48.6,80.77c-7.1,0-13.47.21-19.8-.18-1.21-.07-2.51-2.35-3.39-3.83-13.7-23.23-27.46-46.44-40.89-69.83-2.33-4.07-4.91-5.44-9.41-5.21-7.28.36-14.6.1-22.36.1v78.6H487.33V362.77c.2-.16.46-.53.72-.53,21.48.23,43,.37,64.44.84a44,44,0,0,1,11.7,2.4c25.93,8,37.76,33.5,27.14,58.6-6.12,14.47-17.71,22-32.73,24.85C556.48,449.34,554.35,449.66,551.49,450.14Zm-47.22-14.69c13.86,0,27.3.2,40.72-.12a41.31,41.31,0,0,0,12.12-2.63c13-4.48,19.21-13.34,19-26.63-.22-12.31-7-21.17-19.69-25.13-17.05-5.32-34.56-2.09-52.12-3.06Z" transform="translate(433.68 42.76)"/><path d="M711.4,362.24H815.5v15.6H728.3v57.08h81.41v15.83H728.47v64.12h89.92v15.69h-107Z" transform="translate(433.68 42.76)"/><path d="M126.81,362.34h17c0,1.88,0,3.5,0,5.12,0,33,.23,66-.15,99a116.31,116.31,0,0,1-3.3,26.67c-6.18,24.71-25.93,40.15-52.31,41.65-12.76.73-25.39-.12-37-6.32-19-10.2-27.76-27-30-47.79a174.93,174.93,0,0,1-1-18.44c-.09-31.33,0-62.66,0-94v-5.8h17v5.94q0,48,0,96c0,10.73,1.07,21.3,5.76,31.17,7.73,16.3,21.37,23.29,38.68,23.4,17.48.12,31.4-6.69,39.36-23.12,4.84-10,5.86-20.76,5.87-31.65q.06-47.74,0-95.48C126.81,366.7,126.81,364.72,126.81,362.34Z" transform="translate(433.68 42.76)"/><path d="M956.88,377.85,942.58,389c-.55-.31-1.11-.45-1.36-.8-12.45-17.38-35.8-18.16-51-11.24-10.25,4.68-16.08,12.69-17.09,23.95s3,20.32,12.93,25.59c8.6,4.57,17.89,7.87,26.95,11.56,7.53,3.07,15.42,5.36,22.7,8.91,32.64,15.88,29.15,55.85,8.32,73.59-25.85,22-70.09,18.18-91.16-8.41-.51-.64-.93-1.36-1.7-2.49,2.54-1.88,5-3.72,7.5-5.53s4.85-3.46,7.5-5.35c.76.93,1.4,1.63,2,2.39,12.49,16.88,35.59,22.91,54.5,13.89,10.53-5,17.7-12.87,18.54-25.2.88-13-5.12-22.39-16.44-27.78-9.26-4.41-19.22-7.34-28.85-11-5.44-2.05-10.92-4-16.26-6.33-34-14.67-30.37-60-7.45-76.61,19.88-14.43,61.45-17.22,82.92,7.55C955.63,376.31,956.13,376.94,956.88,377.85Z" transform="translate(433.68 42.76)"/><path d="M291.91,377.83l-14.78,11.48c-8.82-12.14-20.86-17.52-35.21-16.09a56.74,56.74,0,0,0-20.73,6.19c-15.92,8.55-19,35.72-1.51,46,8.79,5.17,18.64,8.57,28.12,12.52,7.5,3.12,15.43,5.33,22.72,8.85,32.9,15.88,29.32,55.84,8.73,73.54-25.55,22-69.62,18.52-90.88-7.66-.72-.89-1.32-1.88-2.18-3.13l15.13-11C211.21,513.35,225,519.76,242,519c10-.46,18.89-3.89,26-11.16,12.66-13,11.11-32.77-3.85-43-5.54-3.78-12.07-6.25-18.39-8.71-9-3.5-18.35-6-27.25-9.68-20.95-8.62-29.7-22.18-28.81-43.57.85-20.31,12.38-36.17,32.38-42.09,25.24-7.48,48.81-5.08,68.16,15.13C290.73,376.38,291.13,376.91,291.91,377.83Z" transform="translate(433.68 42.76)"/><path d="M377.21,377.9H320.65V362.43H450.56v15.38H394.19V530.68h-17Z" transform="translate(433.68 42.76)"/><path d="M-152.62,16.68h-59.84V-42.76h59.84Z" transform="translate(433.68 42.76)"/><path d="M538.61,16.71H479.08V-42.64h59.54Z" transform="translate(433.68 42.76)"/><path d="M654.79,362.35V530.68H638.41V362.35Z" transform="translate(433.68 42.76)"/><path d="M-431.8,530.6V362.42h16.56V530.6Z" transform="translate(433.68 42.76)"/></svg>