<?xml version="1.0" encoding="UTF-8" standalone="no"?>
<svg
   xmlns:dc="http://purl.org/dc/elements/1.1/"
   xmlns:cc="http://creativecommons.org/ns#"
   xmlns:rdf="http://www.w3.org/1999/02/22-rdf-syntax-ns#"
   xmlns:svg="http://www.w3.org/2000/svg"
   xmlns="http://www.w3.org/2000/svg"
   viewBox="0 0 1052.3625 744.09998"
   height="744.09998"
   width="1052.3625"
   xml:space="preserve"
   version="1.1"
   id="svg2"><metadata
     id="metadata8"><rdf:RDF><cc:Work
         rdf:about=""><dc:format>image/svg+xml</dc:format><dc:type
           rdf:resource="http://purl.org/dc/dcmitype/StillImage" /></cc:Work></rdf:RDF></metadata><defs
     id="defs6"><clipPath
       id="clipPath16"
       clipPathUnits="userSpaceOnUse"><path
         id="path18"
         d="m 0,595.28 841.89,0 L 841.89,0 0,0 0,595.28 Z" /></clipPath></defs><g
     transform="matrix(1.25,0,0,-1.25,0,744.1)"
     id="g10"><g
       id="g12"><g
         clip-path="url(#clipPath16)"
         id="g14"><g
           transform="translate(37.4844,379.5264)"
           id="g20"><path
             id="path22"
             style="fill:#f25022;fill-opacity:1;fill-rule:nonzero;stroke:none"
             d="m 0,0 77.909,0 c -0.005,-25.97 0,-51.939 -0.005,-77.909 L 0,-77.909 0,0 Z" /></g><g
           transform="translate(115.3931,379.5264)"
           id="g24"><path
             id="path26"
             style="fill:#fefefe;fill-opacity:1;fill-rule:nonzero;stroke:none"
             d="m 0,0 7.955,0 c 0,-25.97 -0.005,-51.939 0.004,-77.909 25.965,0 51.935,0.005 77.899,0 0.01,25.97 0.005,51.939 0.005,77.909 l 603.149,0 0,-60.591 c -5.558,-0.019 -11.118,0.042 -16.672,-0.038 -0.127,7.033 -0.014,14.066 -0.061,21.094 -5.559,-1.675 -11.084,-3.458 -16.672,-5.048 -0.135,-5.335 -0.009,-10.674 -0.07,-16.008 -8.216,0.004 -16.433,-0.01 -24.651,0.009 0.104,4.202 -0.289,8.436 0.315,12.615 0.5,3.294 2.409,6.588 5.619,7.862 4.048,1.661 8.572,0.556 12.419,-1.137 -0.024,4.814 0.038,9.629 -0.032,14.439 -8.095,2.228 -17.374,1.792 -24.557,-2.883 -4.632,-2.965 -7.992,-7.71 -9.503,-12.969 -1.787,-5.826 -0.876,-11.98 -1.161,-17.959 -3.899,0.027 -7.791,0.065 -11.68,-0.024 0.042,-4.502 0.025,-9.003 0.01,-13.5 3.907,-0.079 7.818,0.015 11.726,-0.06 -0.034,-18.942 -0.009,-37.878 -0.009,-56.821 l 16.849,0 c 0,18.947 -0.004,37.894 0.004,56.839 8.218,0.014 16.44,0.01 24.661,0.005 0.023,-12.077 -0.024,-24.149 0.018,-36.222 0.075,-5.624 1.034,-11.637 4.759,-16.077 3.224,-3.931 8.343,-5.728 13.284,-6.093 5.208,-0.37 10.589,0.267 15.404,2.358 l 0,-33.563 -603.149,0 0,77.909 c -25.969,0 -51.939,0.004 -77.904,-0.005 -0.009,-25.965 0,-51.935 -0.004,-77.904 l -7.955,0 c 0,25.969 0.004,51.934 0,77.904 -25.97,0.013 -51.939,0 -77.909,0.009 l 0,7.95 77.904,0 C 0,-51.939 -0.005,-25.97 0,0" /></g><g
           transform="translate(123.3477,379.5264)"
           id="g28"><path
             id="path30"
             style="fill:#80ba01;fill-opacity:1;fill-rule:nonzero;stroke:none"
             d="m 0,0 77.909,0 c 0,-25.97 0.005,-51.939 -0.005,-77.909 -25.965,0.005 -51.934,0 -77.899,0 C -0.005,-51.939 0,-25.97 0,0" /></g><g
           transform="translate(740.043,349.8408)"
           id="g32"><path
             id="path34"
             style="fill:#777777;fill-opacity:1;fill-rule:nonzero;stroke:none"
             d="m 0,0 c 7.183,4.675 16.462,5.11 24.557,2.883 0.07,-4.811 0.008,-9.625 0.032,-14.44 -3.847,1.694 -8.371,2.798 -12.419,1.137 -3.21,-1.273 -5.119,-4.567 -5.619,-7.861 -0.604,-4.179 -0.211,-8.413 -0.315,-12.615 8.218,-0.019 16.435,-0.005 24.651,-0.009 0.061,5.334 -0.065,10.673 0.07,16.008 5.588,1.589 11.113,3.373 16.672,5.047 0.047,-7.027 -0.066,-14.06 0.061,-21.093 5.554,0.08 11.114,0.018 16.672,0.038 l 0,-13.683 c -5.578,0.23 -11.16,0.062 -16.737,0.08 0.023,-7.866 0.004,-15.732 0.009,-23.601 0.089,-4.358 -0.234,-8.737 0.276,-13.079 0.309,-2.56 1.24,-5.396 3.64,-6.72 4.02,-2.25 9.12,-1.269 12.812,1.203 l 0,-13.818 c -4.815,-2.091 -10.196,-2.728 -15.404,-2.359 -4.941,0.365 -10.06,2.162 -13.284,6.094 -3.725,4.439 -4.684,10.453 -4.759,16.076 -0.042,12.073 0.005,24.146 -0.018,36.223 -8.221,0.005 -16.443,0.009 -24.661,-0.005 -0.007,-18.945 -0.004,-37.893 -0.004,-56.839 l -16.849,0 c 0,18.942 -0.025,37.879 0.009,56.82 -3.908,0.075 -7.819,-0.018 -11.726,0.061 0.015,4.497 0.032,8.998 -0.01,13.5 3.889,0.089 7.781,0.051 11.68,0.023 0.285,5.98 -0.626,12.133 1.161,17.959 C -7.992,-7.711 -4.632,-2.966 0,0" /></g><g
           transform="translate(379.2861,348.8584)"
           id="g36"><path
             id="path38"
             style="fill:#777777;fill-opacity:1;fill-rule:nonzero;stroke:none"
             d="m 0,0 c 3.396,0.515 7.074,-0.646 9.325,-3.303 2.64,-2.911 3.126,-7.544 1.17,-10.945 -2.162,-3.837 -7,-5.619 -11.216,-4.698 -4.375,0.786 -8.02,4.852 -7.824,9.386 C -8.671,-4.787 -4.68,-0.533 0,0" /></g><g
           transform="translate(250.1538,346.7715)"
           id="g40"><path
             id="path42"
             style="fill:#777777;fill-opacity:1;fill-rule:nonzero;stroke:none"
             d="m 0,0 24.505,0 c 7.627,-19.367 15.311,-38.715 22.947,-58.083 1.951,-4.843 3.776,-9.741 5.821,-14.548 9.812,24.201 19.765,48.341 29.502,72.575 7.856,0.126 15.718,0.029 23.579,0.047 -0.019,-32.75 -0.01,-65.5 -0.005,-98.25 -5.671,0.014 -11.338,-0.047 -17.004,0.032 0.061,24.169 -0.005,48.337 0.028,72.51 0.009,1.086 -0.028,2.172 -0.103,3.257 -0.332,-0.505 -0.627,-1.029 -0.885,-1.572 -9.737,-24.739 -19.661,-49.407 -29.343,-74.17 -4.033,-0.146 -8.071,-0.01 -12.11,-0.074 -10.046,24.738 -19.966,49.533 -29.96,74.291 -0.263,0.514 -0.543,1.015 -0.847,1.497 -0.206,-10.589 -0.033,-21.187 -0.089,-31.777 0.004,-14.665 -0.009,-29.329 0.004,-43.994 -5.348,-0.013 -10.696,0 -16.04,-0.005 -0.004,32.755 -0.009,65.51 0,98.264" /></g><g
           transform="translate(425.6572,319.001)"
           id="g44"><path
             id="path46"
             style="fill:#777777;fill-opacity:1;fill-rule:nonzero;stroke:none"
             d="m 0,0 c 8.131,2.315 16.901,2.223 25.029,-0.075 1.675,-0.468 3.298,-1.118 4.806,-2.003 -0.094,-5.366 0,-10.738 -0.052,-16.11 -5.433,4.15 -12.325,6.78 -19.232,5.91 -5.485,-0.496 -10.715,-3.341 -13.994,-7.773 -4.217,-5.493 -5.191,-12.787 -4.465,-19.508 0.543,-5.259 2.719,-10.514 6.808,-14.001 4.249,-3.775 10.204,-5.113 15.764,-4.692 5.494,0.632 10.679,2.958 15.119,6.205 0.047,-5.086 -0.024,-10.173 0.037,-15.259 -6.888,-4.099 -15.147,-5.157 -23.031,-4.769 -8.066,0.427 -16.11,3.482 -21.95,9.153 -6.345,6.116 -9.789,14.838 -10.196,23.575 -0.412,9.082 1.436,18.557 6.663,26.142 C -14.314,-6.733 -7.464,-2.152 0,0" /></g><g
           transform="translate(539.8145,320.2129)"
           id="g48"><path
             id="path50"
             style="fill:#777777;fill-opacity:1;fill-rule:nonzero;stroke:none"
             d="m 0,0 c 8.087,1.029 16.617,0.57 24.122,-2.846 6.514,-2.938 11.791,-8.37 14.716,-14.875 3.12,-6.924 3.879,-14.702 3.35,-22.212 -0.519,-7.332 -2.821,-14.679 -7.407,-20.505 -4.693,-6.185 -11.767,-10.377 -19.343,-11.935 -6.477,-1.349 -13.252,-1.344 -19.728,0.018 -7.749,1.657 -14.922,6.153 -19.466,12.695 -5.334,7.58 -6.85,17.219 -6.171,26.302 0.458,7.707 2.854,15.474 7.777,21.519 C -16.76,-5.067 -8.491,-1.072 0,0" /></g><g
           transform="translate(609.7129,320.0723)"
           id="g52"><path
             id="path54"
             style="fill:#777777;fill-opacity:1;fill-rule:nonzero;stroke:none"
             d="m 0,0 c 7.791,1.371 15.947,0.365 23.32,-2.429 0.01,-5.166 0,-10.326 0.005,-15.488 -5.15,3.543 -11.444,5.447 -17.696,5.227 -3.149,-0.122 -6.611,-1.456 -8.048,-4.45 -1.142,-2.962 -0.351,-6.845 2.443,-8.62 4.777,-3.195 10.476,-4.553 15.427,-7.416 3.898,-2.189 7.678,-5.053 9.653,-9.18 3.71,-7.731 2.139,-17.946 -4.385,-23.71 -6.227,-5.821 -15.198,-7.431 -23.447,-7.122 -5.858,0.379 -11.745,1.535 -17.129,3.931 0.022,5.432 -0.035,10.861 0.026,16.288 4.53,-3.289 9.758,-5.643 15.287,-6.597 3.852,-0.626 8.04,-0.656 11.628,1.066 3.436,1.708 4.053,6.588 2.013,9.575 -1.909,2.301 -4.712,3.569 -7.356,4.814 -4.965,2.232 -10.181,4.099 -14.543,7.445 -3.065,2.391 -5.386,5.761 -6.294,9.56 -1.346,5.6 -0.926,11.913 2.33,16.807 C -13.046,-4.595 -6.584,-1.175 0,0" /></g><g
           transform="translate(674.1133,320.2363)"
           id="g56"><path
             id="path58"
             style="fill:#777777;fill-opacity:1;fill-rule:nonzero;stroke:none"
             d="m 0,0 c 8.408,1.043 17.336,0.478 25.01,-3.397 6.692,-3.346 11.881,-9.392 14.472,-16.382 2.027,-5.349 2.738,-11.122 2.621,-16.817 0.014,-8.507 -2.283,-17.239 -7.623,-23.986 -4.997,-6.532 -12.642,-10.777 -20.714,-12.11 -7.894,-1.277 -16.233,-0.946 -23.733,2.007 -7.599,2.99 -13.916,9.092 -17.117,16.607 -3.336,7.659 -3.687,16.279 -2.648,24.463 1.09,8.184 4.796,16.185 11.113,21.628 C -13.443,-3.444 -6.78,-0.871 0,0" /></g><g
           transform="translate(493.168,317.8545)"
           id="g60"><path
             id="path62"
             style="fill:#777777;fill-opacity:1;fill-rule:nonzero;stroke:none"
             d="m 0,0 c 4.65,2.793 10.561,3.027 15.638,1.319 -0.023,-5.62 0,-11.239 -0.013,-16.859 -3.323,2.152 -7.469,3.074 -11.39,2.677 -4.783,-0.543 -8.573,-4.216 -10.537,-8.429 -2.135,-4.458 -2.536,-9.501 -2.401,-14.377 0,-11.227 0.005,-22.452 0,-33.678 l -16.611,0 c -0.014,23.462 0.018,46.928 -0.014,70.39 5.545,0.07 11.09,0.042 16.635,0.015 -0.024,-4.03 0,-8.058 -0.014,-12.092 C -6.906,-6.649 -4.225,-2.392 0,0" /></g><g
           transform="translate(372.2715,318.9121)"
           id="g64"><path
             id="path66"
             style="fill:#777777;fill-opacity:1;fill-rule:nonzero;stroke:none"
             d="M 0,0 C 5.587,0.023 11.179,0.079 16.766,-0.028 16.7,-23.486 16.761,-46.946 16.737,-70.404 l -16.727,0 C -0.004,-46.938 0.015,-23.471 0,0" /></g><g
           transform="translate(544.8408,306.8398)"
           id="g68"><path
             id="path70"
             style="fill:#fefefe;fill-opacity:1;fill-rule:nonzero;stroke:none"
             d="m 0,0 c 5.063,0.332 10.453,-1.1 14.093,-4.782 3.894,-3.828 5.4,-9.381 5.817,-14.679 0.3,-5.798 0.06,-11.839 -2.372,-17.211 -1.61,-3.621 -4.559,-6.682 -8.278,-8.132 -4.353,-1.671 -9.241,-1.768 -13.734,-0.603 -4.572,1.201 -8.45,4.506 -10.56,8.713 -2.715,5.418 -3.121,11.683 -2.561,17.626 0.511,5.404 2.392,10.963 6.509,14.693 C -8.099,-1.587 -4.028,-0.225 0,0" /></g><g
           transform="translate(678.6611,306.8252)"
           id="g72"><path
             id="path74"
             style="fill:#fefefe;fill-opacity:1;fill-rule:nonzero;stroke:none"
             d="m 0,0 c 4.759,0.332 9.841,-0.768 13.499,-3.981 3.374,-2.799 5.241,-6.992 6.098,-11.212 0.964,-4.951 0.954,-10.074 0.139,-15.049 -0.645,-3.706 -1.927,-7.403 -4.355,-10.336 -2.447,-2.948 -6.088,-4.745 -9.846,-5.297 -4.033,-0.604 -8.282,-0.313 -12.054,1.311 -4.07,1.721 -7.224,5.245 -8.885,9.297 -1.998,4.829 -2.396,10.178 -1.998,15.343 0.383,5.003 1.801,10.136 5.105,14.024 C -9.284,-2.27 -4.661,-0.262 0,0" /></g><g
           transform="translate(787.668,305.333)"
           id="g76"><path
             id="path78"
             style="fill:#fefefe;fill-opacity:1;fill-rule:nonzero;stroke:none"
             d="m 0,0 c 5.577,-0.019 11.159,0.149 16.737,-0.08 l 0,-42.117 C 13.045,-44.669 7.945,-45.65 3.925,-43.4 c -2.4,1.324 -3.331,4.16 -3.64,6.719 -0.51,4.343 -0.187,8.722 -0.276,13.079 C 0.004,-15.732 0.023,-7.866 0,0" /></g><g
           transform="translate(37.4844,293.667)"
           id="g80"><path
             id="path82"
             style="fill:#02a4ef;fill-opacity:1;fill-rule:nonzero;stroke:none"
             d="m 0,0 c 25.97,-0.009 51.939,0.004 77.909,-0.009 0.004,-25.97 0,-51.934 0,-77.904 L 0,-77.913 0,0 Z" /></g><g
           transform="translate(123.3525,293.6582)"
           id="g84"><path
             id="path86"
             style="fill:#ffb902;fill-opacity:1;fill-rule:nonzero;stroke:none"
             d="m 0,0 c 25.965,0.009 51.934,0.005 77.904,0.005 l 0,-77.909 -77.909,0 C 0,-51.935 -0.01,-25.965 0,0" /></g></g></g></g></svg>